<svg version="1.1" id="Layer_1" xmlns="http://www.w3.org/2000/svg" xmlns:xlink="http://www.w3.org/1999/xlink" x="0px" y="0px"
	 width="100%" viewBox="0 0 496 496" enable-background="new 0 0 496 496" xml:space="preserve">
<path fill="#000000" opacity="1.000000" stroke="none" 
	d="
M131.195862,180.837906 
	C139.092331,181.015137 143.028778,185.755356 145.217133,192.114471 
	C148.354782,201.232147 151.142639,210.472885 153.956100,219.698837 
	C159.825806,238.947037 165.620560,258.218140 171.427994,277.485291 
	C172.090195,279.682281 172.636719,281.914185 173.375580,284.641937 
	C168.238327,285.856903 163.483963,285.397400 158.779282,285.134583 
	C156.467056,285.005371 156.241104,282.754730 155.731232,281.057831 
	C152.906357,271.656586 150.041946,262.265045 147.408173,252.809738 
	C146.515884,249.606400 145.082336,248.138229 141.532166,248.245239 
	C133.376556,248.491074 125.204590,248.484756 117.047585,248.267746 
	C113.182129,248.164886 112.136406,249.779892 112.291954,253.324387 
	C112.605476,260.468597 112.008011,267.629028 112.988205,274.777069 
	C113.431412,278.009155 113.063362,281.352509 113.063362,284.945282 
	C105.746803,284.945282 98.552277,284.945282 91.057236,284.945282 
	C91.513351,279.812286 93.409416,275.520538 94.726868,271.114563 
	C102.018929,246.727325 109.435173,222.377167 116.850357,198.026947 
	C117.624825,195.483765 118.577263,192.983688 119.611710,190.533096 
	C121.736511,185.499527 125.117287,181.840988 131.195862,180.837906 
M136.417755,216.961273 
	C134.768906,211.560150 133.343170,206.076492 131.387238,200.788956 
	C130.219727,197.632812 130.721069,192.410004 125.802803,192.535507 
	C121.346703,192.649185 120.386208,197.304871 118.858696,200.760071 
	C118.791489,200.912094 118.719650,201.064209 118.673676,201.223145 
	C114.861580,214.401871 113.520233,227.910629 113.190117,241.567703 
	C113.117783,244.560135 114.281830,245.730255 117.290245,245.687149 
	C125.270981,245.572769 133.254471,245.659225 141.236816,245.640701 
	C142.375687,245.638062 143.616867,245.759415 144.313675,244.416931 
	C144.313675,243.977478 144.430420,243.455780 144.296371,243.009430 
	C141.764343,234.578110 139.202682,226.155701 136.417755,216.961273 
z"/>
<path fill="#000000" opacity="1.000000" stroke="none" 
	d="
M270.170746,221.034210 
	C267.371826,232.080963 264.805695,242.782089 264.357513,253.789230 
	C263.882111,265.465424 268.521637,270.578339 280.333710,271.556458 
	C288.971802,272.271790 297.669281,272.219025 306.312775,271.572144 
	C315.856354,270.857849 318.759094,267.462311 318.753052,257.923584 
	C318.738220,234.592133 318.829926,211.259659 318.613861,187.930054 
	C318.569763,183.170242 319.990326,181.499435 324.845062,181.623474 
	C336.466034,181.920425 334.359100,181.018127 334.389252,191.221359 
	C334.425720,203.553375 335.053833,215.935822 334.172760,228.206451 
	C332.770752,247.732147 326.279083,265.312134 310.563110,278.213013 
	C302.285339,285.008057 292.506348,287.392395 281.984100,286.182495 
	C269.206482,284.713226 261.239929,275.348053 261.033295,260.595367 
	C260.687897,235.935837 260.978729,211.267776 260.912506,186.603531 
	C260.902771,182.979691 262.281891,181.524094 265.963562,181.665131 
	C271.416382,181.874008 276.883148,181.719147 283.497284,181.719147 
	C278.037445,195.069305 273.283264,207.576706 270.170746,221.034210 
z"/>
<path fill="#000000" opacity="1.000000" stroke="none" 
	d="
M186.083893,181.704315 
	C208.206131,181.703659 229.837418,181.703659 253.264343,181.703659 
	C234.095490,215.727814 215.628479,248.506210 196.696106,282.110626 
	C207.145676,283.501282 216.573853,282.872986 225.968002,280.790833 
	C235.329025,278.716003 243.744400,274.589905 251.685501,268.213593 
	C252.809631,273.590088 252.229767,278.197449 252.226669,282.772278 
	C252.225342,284.730713 250.929596,285.312225 249.233963,285.308563 
	C225.740692,285.257996 202.247437,285.201813 178.754257,285.120087 
	C178.495834,285.119171 178.238647,284.761475 177.267563,284.041412 
	C195.699631,251.310516 214.187408,218.480667 233.186905,184.742157 
	C213.104218,183.481842 195.046967,185.327118 179.517090,199.141434 
	C178.092834,193.558685 178.330780,188.743912 178.957382,184.113174 
	C179.479767,180.252533 183.240631,182.236511 186.083893,181.704315 
z"/>
<path fill="#000000" opacity="1.000000" stroke="none" 
	d="
M409.308594,281.861450 
	C409.334167,284.841095 407.769440,285.349121 405.685913,285.346863 
	C387.357971,285.326965 369.029846,285.288574 350.702179,285.354889 
	C347.075623,285.367981 346.775818,283.224121 346.781769,280.455444 
	C346.813568,265.626343 346.785675,250.797119 346.784210,235.967941 
	C346.782623,219.805817 346.894135,203.642517 346.717529,187.482330 
	C346.670898,183.216003 347.954376,181.527634 352.416168,181.639999 
	C364.323822,181.939880 363.075867,180.482666 363.081970,192.421188 
	C363.096252,220.413254 363.081085,248.405304 363.089355,276.397369 
	C363.091248,282.760498 364.028076,283.466705 370.499878,282.421082 
	C377.244049,281.331482 383.888275,279.879517 390.353394,277.625702 
	C396.656036,275.428497 402.515137,272.352936 408.430176,268.408417 
	C410.138550,272.923065 409.000153,277.217133 409.308594,281.861450 
z"/>
<path fill="#000000" opacity="1.000000" stroke="none" 
	d="
M265.527313,301.832092 
	C261.206421,302.824432 257.263550,300.334534 253.724014,300.970917 
	C250.354691,301.576752 246.848022,300.133606 243.635345,302.008606 
	C242.363419,302.750946 240.553207,302.727264 239.467392,301.484222 
	C238.274521,300.118652 238.540878,298.285797 239.124588,296.724915 
	C239.851395,294.781372 241.706497,294.699463 243.363480,295.010376 
	C248.909866,296.051086 254.386536,296.134796 259.965057,295.013336 
	C261.779266,294.648651 263.994904,295.230530 265.760162,295.995270 
	C267.250183,296.640808 268.412140,297.715363 269.856293,295.753937 
	C270.492767,298.050842 270.448608,299.678406 270.000153,301.270569 
	C268.707977,302.783081 267.110748,300.376129 265.527313,301.832092 
z"/>
<path fill="#000000" opacity="1.000000" stroke="none" 
	d="
M232.479553,296.221313 
	C234.170670,298.374573 235.917831,296.776642 237.494827,296.459503 
	C238.604980,298.115692 238.173538,299.683289 237.950546,301.317963 
	C235.939194,301.760284 234.031342,299.749664 232.406616,302.071564 
	C231.512482,299.710602 231.332199,297.991028 232.479553,296.221313 
z"/>
</svg>